# xmcd
#
# Track frame offsets:
#	150
#	21995
#	36585
#	53695
#	74997
#	97682
#	122525
#	140420
#	153770
#	169757
#
# Disc length: 2547 seconds
# Revision: 5
# Processed by: cddbd v1.5.2PL0 Copyright (c) Steve Scherf et al.
# Submitted via: dBpowerAMP V12.0
#
DISCID=8409f10a
DTITLE=Ray Wylie Hubbard - Dangerous Spirits
DYEAR=1997
DGENRE=Country
TTITLE0=Dangerous Spirits
TTITLE1=If Heaven Is Not a Place to Go
TTITLE2=Without Love (We're Just Wastin' Time)
TTITLE3=Hey That's All Right
TTITLE4=Last Train to Amsterdam
TTITLE5=The Last Younger Son
TTITLE6=Resurrection
TTITLE7=Crimson Dragon Tattoo
TTITLE8=The Sun Also Rises
TTITLE9=The Ballad of the Crimson Kings
EXTD=
EXTT0=
EXTT1=
EXTT2=
EXTT3=
EXTT4=
EXTT5=
EXTT6=
EXTT7=
EXTT8=
EXTT9=
PLAYORDER=
